<?xml version="1.0" encoding="UTF-8"?>
<svg id="_レイヤー_1" data-name="レイヤー 1" xmlns="http://www.w3.org/2000/svg" viewBox="0 0 202.39 71.47">
  <g>
    <path d="M24.29.96h5.33l-12.43,21.12v12.48h-4.75v-12.43L0,.96h5.33l9.46,16.75L24.29.96Z"/>
    <path d="M49.36,34.56h-4.13l-.34-2.83c-.77,1.02-1.74,1.81-2.9,2.35-1.17.54-2.47.82-3.91.82-1.86,0-3.47-.39-4.85-1.18-1.38-.78-2.44-1.94-3.19-3.46-.75-1.52-1.13-3.42-1.13-5.69v-14.02h4.56v13.44c0,2.21.46,3.89,1.37,5.04s2.3,1.73,4.15,1.73,3.26-.59,4.3-1.78c1.04-1.18,1.56-2.94,1.56-5.28v-13.15h4.51v24Z"/>
    <path d="M54.23,0h4.56v20.59h1.97l8.98-10.03h6.14l-11.14,12,11.18,12h-6.19l-8.98-10.08h-1.97v10.08h-4.56V0Z"/>
    <path d="M80.83,6.34c-.86,0-1.58-.29-2.16-.86-.58-.58-.86-1.28-.86-2.11s.29-1.59.86-2.18c.58-.59,1.3-.89,2.16-.89s1.54.3,2.14.89c.59.59.89,1.32.89,2.18s-.3,1.54-.89,2.11c-.59.58-1.3.86-2.14.86ZM78.52,10.56h4.56v24h-4.56V10.56Z"/>
    <path d="M124.22,4.99h-17.66v10.51h13.25v4.03h-13.25v10.99h17.66v4.03h-22.46V.96h22.46v4.03Z"/>
    <path d="M127.41,10.56h4.13l.29,2.78c.77-.99,1.74-1.76,2.93-2.3,1.18-.54,2.5-.82,3.94-.82,1.86,0,3.46.39,4.82,1.18,1.36.78,2.42,1.94,3.17,3.48.75,1.54,1.13,3.46,1.13,5.76v13.92h-4.51v-13.34c0-2.24-.47-3.94-1.42-5.11-.94-1.17-2.31-1.75-4.1-1.75s-3.3.6-4.32,1.8c-1.02,1.2-1.54,2.97-1.54,5.3v13.1h-4.51V10.56Z"/>
    <path d="M170.62,14.64l-.53.14V0h4.56v34.56h-4.13l-.34-3.6c-.8,1.09-1.88,2.02-3.24,2.78s-3.02,1.15-4.97,1.15c-2.18,0-4.07-.51-5.69-1.54-1.62-1.02-2.88-2.46-3.79-4.32-.91-1.86-1.37-4.02-1.37-6.48s.46-4.62,1.37-6.48c.91-1.86,2.18-3.3,3.79-4.32,1.62-1.02,3.51-1.54,5.69-1.54s3.85.42,5.3,1.27c1.46.85,2.57,1.9,3.34,3.14ZM155.98,22.56c0,2.46.64,4.45,1.92,5.95,1.28,1.5,2.99,2.26,5.14,2.26,1.31,0,2.5-.32,3.55-.96,1.06-.64,1.9-1.58,2.54-2.81.64-1.23.96-2.71.96-4.44s-.32-3.2-.96-4.42c-.64-1.22-1.49-2.15-2.54-2.81-1.06-.66-2.24-.98-3.55-.98-2.11,0-3.82.75-5.11,2.26-1.3,1.5-1.94,3.49-1.94,5.95Z"/>
    <path d="M190.15,34.9c-2.27,0-4.31-.5-6.12-1.51-1.81-1.01-3.22-2.43-4.25-4.27-1.02-1.84-1.54-4.01-1.54-6.5s.53-4.72,1.58-6.58c1.06-1.86,2.5-3.29,4.32-4.3,1.82-1.01,3.87-1.51,6.14-1.51s4.33.5,6.17,1.51c1.84,1.01,3.29,2.43,4.34,4.27,1.06,1.84,1.58,4.01,1.58,6.5s-.54,4.72-1.61,6.58c-1.07,1.86-2.54,3.29-4.39,4.3-1.86,1.01-3.94,1.51-6.24,1.51ZM190.1,30.77c1.28,0,2.48-.3,3.6-.89,1.12-.59,2.04-1.5,2.76-2.71.72-1.22,1.08-2.77,1.08-4.66s-.34-3.38-1.03-4.58c-.69-1.2-1.59-2.1-2.71-2.69-1.12-.59-2.32-.89-3.6-.89s-2.41.3-3.48.89c-1.07.59-1.94,1.5-2.62,2.71-.67,1.22-1.01,2.77-1.01,4.66s.33,3.38.98,4.58c.66,1.2,1.51,2.1,2.57,2.69,1.06.59,2.21.89,3.46.89Z"/>
  </g>
  <g>
    <path d="M44.08,56.89c0,.83-.14,1.61-.41,2.33-.27.73-.69,1.35-1.25,1.89-.56.53-1.27.95-2.12,1.25-.85.3-1.86.45-3.02.45h-5.05v8.47h-1.77v-20.3h6.82c1.6,0,2.9.26,3.89.78.99.52,1.72,1.23,2.19,2.12.47.89.71,1.9.71,3.02ZM37.3,61.24c1.2,0,2.17-.18,2.91-.55.74-.37,1.29-.88,1.62-1.54s.51-1.41.51-2.26c0-1.37-.39-2.45-1.17-3.22-.78-.77-2.07-1.16-3.87-1.16h-5.05v8.73h5.05Z"/>
    <path d="M55.51,71.47c-1.43,0-2.75-.25-3.97-.75s-2.28-1.21-3.19-2.13c-.91-.92-1.61-2.01-2.1-3.28-.49-1.27-.74-2.66-.74-4.19s.25-2.92.74-4.19c.49-1.27,1.19-2.36,2.1-3.28.91-.92,1.97-1.63,3.19-2.13s2.54-.75,3.97-.75,2.72.25,3.93.75,2.26,1.21,3.16,2.13c.9.92,1.6,2.01,2.1,3.28.5,1.27.75,2.66.75,4.19s-.25,2.92-.75,4.19c-.5,1.27-1.2,2.36-2.1,3.28-.9.92-1.95,1.63-3.16,2.13s-2.52.75-3.93.75ZM55.51,69.94c1.53,0,2.91-.36,4.13-1.07,1.23-.71,2.2-1.73,2.93-3.04.73-1.31,1.09-2.88,1.09-4.7s-.36-3.39-1.09-4.71c-.72-1.32-1.7-2.34-2.93-3.04s-2.61-1.06-4.13-1.06-2.94.35-4.18,1.06-2.22,1.72-2.94,3.04-1.09,2.9-1.09,4.71.36,3.38,1.09,4.7c.72,1.32,1.71,2.33,2.94,3.04,1.24.72,2.63,1.07,4.18,1.07Z"/>
    <path d="M75,50.97c1.6,0,2.91.26,3.9.78,1,.52,1.73,1.23,2.22,2.12.48.89.73,1.9.73,3.02,0,.83-.14,1.6-.41,2.32-.27.72-.69,1.34-1.25,1.87-.56.53-1.27.95-2.12,1.26s-1.86.46-3.02.46h-5.05v8.47h-1.77v-20.3h6.76ZM80.04,56.89c0-1.33-.39-2.4-1.16-3.19-.77-.79-2.07-1.19-3.89-1.19h-4.99v8.73h5.05c1.16,0,2.11-.18,2.84-.55.73-.37,1.28-.88,1.62-1.54s.52-1.41.52-2.26ZM76.54,62.14l5.66,9.13h-2l-5.57-9.13h1.91Z"/>
    <path d="M82.93,50.97h14.88v1.54h-6.55v18.76h-1.74v-18.76h-6.58v-1.54Z"/>
    <path d="M100,50.97h13.08v1.54h-11.31v7.63h8.5v1.54h-8.5v9.6h-1.77v-20.3Z"/>
    <path d="M123.27,71.47c-1.43,0-2.75-.25-3.97-.75s-2.28-1.21-3.19-2.13c-.91-.92-1.61-2.01-2.1-3.28-.49-1.27-.74-2.66-.74-4.19s.25-2.92.74-4.19c.49-1.27,1.19-2.36,2.1-3.28.91-.92,1.97-1.63,3.19-2.13s2.54-.75,3.97-.75,2.72.25,3.93.75,2.26,1.21,3.16,2.13c.9.92,1.6,2.01,2.1,3.28.5,1.27.75,2.66.75,4.19s-.25,2.92-.75,4.19c-.5,1.27-1.2,2.36-2.1,3.28-.9.92-1.95,1.63-3.16,2.13s-2.52.75-3.93.75ZM123.27,69.94c1.53,0,2.91-.36,4.13-1.07,1.23-.71,2.2-1.73,2.93-3.04.73-1.31,1.09-2.88,1.09-4.7s-.36-3.39-1.09-4.71c-.72-1.32-1.7-2.34-2.93-3.04s-2.61-1.06-4.13-1.06-2.94.35-4.18,1.06-2.22,1.72-2.94,3.04-1.09,2.9-1.09,4.71.36,3.38,1.09,4.7c.72,1.32,1.71,2.33,2.94,3.04,1.24.72,2.63,1.07,4.18,1.07Z"/>
    <path d="M137.77,50.97v18.76h9.69v1.54h-11.46v-20.3h1.77Z"/>
    <path d="M149.45,50.97h1.77v20.3h-1.77v-20.3Z"/>
    <path d="M164.05,71.47c-1.43,0-2.75-.25-3.97-.75s-2.28-1.21-3.19-2.13c-.91-.92-1.61-2.01-2.1-3.28-.49-1.27-.74-2.66-.74-4.19s.25-2.92.74-4.19c.49-1.27,1.19-2.36,2.1-3.28.91-.92,1.97-1.63,3.19-2.13s2.54-.75,3.97-.75,2.72.25,3.93.75,2.26,1.21,3.16,2.13c.9.92,1.6,2.01,2.1,3.28.5,1.27.75,2.66.75,4.19s-.25,2.92-.75,4.19c-.5,1.27-1.2,2.36-2.1,3.28-.9.92-1.95,1.63-3.16,2.13s-2.52.75-3.93.75ZM164.05,69.94c1.53,0,2.91-.36,4.13-1.07,1.23-.71,2.2-1.73,2.93-3.04.73-1.31,1.09-2.88,1.09-4.7s-.36-3.39-1.09-4.71c-.72-1.32-1.7-2.34-2.93-3.04s-2.61-1.06-4.13-1.06-2.94.35-4.18,1.06-2.22,1.72-2.94,3.04-1.09,2.9-1.09,4.71.36,3.38,1.09,4.7c.72,1.32,1.71,2.33,2.94,3.04,1.24.72,2.63,1.07,4.18,1.07Z"/>
  </g>
</svg>
